<?xml version="1.0" encoding="UTF-8"?>
<svg width="20px" height="17px" viewBox="0 0 20 17" version="1.1" xmlns="http://www.w3.org/2000/svg" xmlns:xlink="http://www.w3.org/1999/xlink">
    <title>Logo/Mark/White</title>
    <defs>
        <filter id="filter-1">
            <feColorMatrix in="SourceGraphic" type="matrix" values="0 0 0 0 1.000000 0 0 0 0 1.000000 0 0 0 0 1.000000 0 0 0 1.000000 0"></feColorMatrix>
        </filter>
        <path d="M1.80096894,0.017431224 C2.1426501,0.017431224 2.45638923,0.0947617052 2.72398344,0.245362416 C2.98919255,0.394688495 3.20252588,0.612743401 3.34858799,0.883817927 C3.49592547,1.15716316 3.57160248,1.47787235 3.57160248,1.82712149 C3.57160248,2.17635374 3.49592547,2.49706294 3.34859627,2.77044193 C3.20248447,3.04153334 2.98913458,3.25960513 2.72392547,3.40889745 C2.45636439,3.55946439 2.14262526,3.63679487 1.80096894,3.63679487 C1.45930435,3.63679487 1.14556522,3.55946439 0.877979296,3.40888056 C0.612795031,3.25960513 0.399445135,3.04153334 0.253333333,2.77044193 C0.106004141,2.49706294 0.0303271222,2.17635374 0.0303271222,1.82712149 C0.0303271222,1.47787235 0.106004141,1.15716316 0.253325052,0.883843251 C0.399412008,0.612743401 0.61273706,0.394688495 0.877995859,0.245337092 C1.14554865,0.0947617052 1.4592795,0.017431224 1.80096894,0.017431224 Z M1.80096894,0.577129679 C1.54899379,0.577129679 1.32616149,0.632048587 1.14219462,0.735589213 C0.967726708,0.833820281 0.829109731,0.975515451 0.732993789,1.1538795 C0.631693582,1.34181595 0.57794617,1.56958676 0.57794617,1.82712149 C0.57794617,2.08465622 0.631693582,2.31242703 0.732993789,2.50039724 C0.829118012,2.67873597 0.967759834,2.82044802 1.14213665,2.91860312 C1.32617805,3.02216907 1.54901863,3.07709642 1.80096894,3.07709642 C2.05291925,3.07709642 2.27575983,3.02216907 2.45975983,2.91862844 C2.63416977,2.82044802 2.77281159,2.67873597 2.86893582,2.50039724 C2.97023602,2.31242703 3.02398344,2.08464778 3.02398344,1.82712149 C3.02398344,1.56958676 2.97023602,1.34181595 2.86891925,1.15384574 C2.77282816,0.975515451 2.6342029,0.833820281 2.45978468,0.735614537 C2.27576812,0.632048587 2.05293582,0.577129679 1.80096894,0.577129679 Z" id="path-2"></path>
        <path d="M1.85286128,0.020453199 C2.19453416,0.020453199 2.50825673,0.0977245912 2.77573499,0.248190242 C3.04097723,0.397431908 3.25437681,0.615343312 3.4004472,0.886215248 C3.53688613,1.13916637 3.61191718,1.43283818 3.6222029,1.75230651 C3.62306418,1.76131334 3.62349482,1.77045524 3.62349482,1.77968999 L3.62349482,11.6498906 C3.62349482,11.65271 3.62349482,11.6555293 3.62337888,11.6583319 C3.62349482,11.6658615 3.62349482,11.6736528 3.62349482,11.6819421 C3.62349482,12.030862 3.54779296,12.3513855 3.4004472,12.6247392 C3.2543354,12.8956195 3.04091097,13.1135647 2.77570186,13.2627473 C2.5082236,13.4131876 2.19450932,13.490459 1.85286128,13.490459 C1.51120497,13.490459 1.19742443,13.4131792 0.92994617,13.2627389 C0.664703934,13.1135478 0.451279503,12.8955689 0.305275362,12.6247307 C0.157913043,12.3515121 0.0822277433,12.0309802 0.0822277433,11.6819421 C0.0822277433,11.6738807 0.0822691511,11.6658446 0.0823354037,11.6578254 L0.0822277433,11.6498906 L0.0822277433,11.6498906 L0.0822277433,1.77968999 C0.0822277433,1.77085198 0.0826335404,1.76210682 0.0834120083,1.7534714 C0.0935569358,1.43361477 0.168654244,1.1395209 0.305233954,0.886308102 C0.451238095,0.61539396 0.664645963,0.397448791 0.929937888,0.248181801 C1.1973913,0.0977245912 1.51118012,0.020453199 1.85286128,0.020453199 Z M1.85286128,0.580143213 C1.60084472,0.580143213 1.37792133,0.635045238 1.19401242,0.738501452 C1.01949482,0.836690313 0.880869565,0.978275747 0.784853002,1.15642877 C0.689217391,1.33372922 0.635942029,1.54649144 0.630343685,1.78637548 C0.630252588,1.79019937 0.630086957,1.79401483 0.629846791,1.79780496 L0.629846791,11.6386468 C0.630037267,11.6436356 0.63010352,11.6486666 0.630037267,11.6537229 C0.629913043,11.6630758 0.629846791,11.6724879 0.629846791,11.6819421 C0.629846791,11.9392151 0.68357764,12.1667496 0.784886128,12.3545847 C0.880877847,12.5326618 1.01953623,12.6742725 1.1939793,12.7724023 C1.37793789,12.875867 1.60086128,12.930769 1.85286128,12.930769 C2.10484472,12.930769 2.32770186,12.8758754 2.51166874,12.7724023 C2.6861118,12.674281 2.82479503,12.5326533 2.92083644,12.3546016 C3.02212836,12.1666905 3.07587578,11.9391054 3.07587578,11.6819421 C3.07587578,11.6719307 3.07580952,11.6634135 3.07565217,11.6556391 C3.07552795,11.6493335 3.07560248,11.6430785 3.07587578,11.6368741 L3.07587578,1.79891076 C3.07560248,1.79475766 3.07541201,1.79057079 3.07531263,1.78637548 C3.06971429,1.54640703 3.01647205,1.33365324 2.92086128,1.15640344 C2.82481159,0.978284188 2.68615321,0.836690313 2.51166046,0.738509893 C2.32771843,0.635036797 2.10486957,0.580143213 1.85286128,0.580143213 Z" id="path-4"></path>
        <path d="M1.82194617,0.0645335147 C2.16352795,0.0645335147 2.47726708,0.141872437 2.74486957,0.292414059 C3.01005383,0.441706373 3.2234617,0.659778161 3.3695735,0.930793599 C3.5059793,1.18387134 3.58100207,1.47768665 3.59128778,1.79724783 C3.59214079,1.80626311 3.59257971,1.81539656 3.59257971,1.82463131 L3.59257971,6.76773816 C3.59257971,6.77055754 3.5925383,6.77337692 3.59245549,6.77617943 C3.59257971,6.78371748 3.59257971,6.79150877 3.59257971,6.79980654 C3.59257971,7.14899659 3.51690269,7.46966358 3.36956522,7.74301725 C3.22346998,8.0140234 3.01005383,8.23207915 2.74484472,8.38134614 C2.47735818,8.53189199 2.16361905,8.60921909 1.82194617,8.60921909 C1.48025673,8.60921909 1.16645135,8.53188608 0.898973085,8.3813453 C0.633730849,8.23205974 0.4203147,8.01397529 0.274327122,7.74300037 C0.126989648,7.46966358 0.0513126294,7.14899659 0.0513126294,6.79980654 C0.0513126294,6.79173669 0.0513126294,6.78369216 0.0514202899,6.77567295 L0.0513126294,6.77170872 L0.0513126294,6.77170872 L0.0513126294,1.82463131 C0.0513126294,1.8157933 0.0517101449,1.80704815 0.0524968944,1.79841273 C0.0626335404,1.47846324 0.137722567,1.18422587 0.274302277,0.930827364 C0.4203147,0.659828809 0.633730849,0.441723256 0.899022774,0.292371853 C1.16654244,0.141880878 1.48035611,0.0645335147 1.82194617,0.0645335147 Z M1.82194617,0.624223529 C1.57004555,0.624223529 1.34711387,0.679176201 1.16315528,0.78266618 C0.988695652,0.880880365 0.850012422,1.0226093 0.753971014,1.20085517 C0.658318841,1.37832445 0.605026915,1.59128083 0.59942029,1.83130836 L0.598931677,1.84274628 L0.598931677,1.84274628 L0.598931677,6.75648594 C0.599122153,6.76148317 0.599188406,6.76650573 0.599122153,6.77156205 C0.598989648,6.78092342 0.598931677,6.79034388 0.598931677,6.79980654 C0.598931677,7.05728218 0.652670807,7.28500234 0.753995859,7.472981 C0.850004141,7.65118467 0.988670807,7.79287984 1.16313043,7.89107123 C1.34706418,7.99459244 1.56997101,8.04952317 1.82194617,8.04952317 C2.07390476,8.04952317 2.29673706,7.99460173 2.48068737,7.89107208 C2.655147,7.79288828 2.79383023,7.65117623 2.88992133,7.47293035 C2.99122153,7.28500234 3.04496066,7.05728218 3.04496066,6.79980654 C3.04496066,6.78978675 3.04489441,6.78126107 3.04473706,6.77347822 C3.04460455,6.76718103 3.04468737,6.76092605 3.04496066,6.75472172 L3.04496066,1.84385209 C3.04468737,1.83969898 3.04449689,1.83551211 3.04439752,1.83130836 C3.03879089,1.59119641 2.98553209,1.37824848 2.88992961,1.20087206 C2.79382195,1.0226093 2.65512215,0.880871924 2.48073706,0.782699945 C2.29668737,0.67916776 2.07382195,0.624223529 1.82194617,0.624223529 Z" id="path-6"></path>
        <path d="M1.79103106,0.0498372624 C2.13260455,0.0498372624 2.44638509,0.127184626 2.7139793,0.277717807 C2.97918841,0.42700168 3.19257971,0.645081909 3.3386501,0.916088905 C3.47517184,1.16936923 3.55024431,1.46351375 3.5604472,1.7833535 C3.56125052,1.7921071 3.5616646,1.80097043 3.5616646,1.8099435 L3.5616646,6.75303346 C3.5616646,6.75585285 3.56162319,6.75866379 3.56154037,6.76145785 C3.56162319,6.76932511 3.5616646,6.77720926 3.5616646,6.78511029 C3.5616646,7.13427501 3.48598758,7.45493356 3.33865839,7.72828723 C3.19258799,7.999328 2.97918841,8.21739134 2.71396273,8.36665833 C2.44647619,8.51719151 2.13269565,8.59452199 1.79103106,8.59452199 C1.44935818,8.59452199 1.13557764,8.51719151 0.868091097,8.36665833 C0.602857143,8.21739134 0.389457557,7.99931955 0.243395445,7.72828723 C0.0960662526,7.45494201 0.0203975155,7.13428345 0.0203975155,6.78511029 C0.0203975155,6.77708264 0.0203975155,6.76915629 0.0205134576,6.76133123 L0.0203975155,6.75718868 L0.0203975155,6.75718868 L0.0203975155,1.8099435 C0.0203975155,1.80101264 0.0208033126,1.79218307 0.0215983437,1.78347168 C0.0317846791,1.46358128 0.106857143,1.16939456 0.243395445,0.916105788 C0.389465839,0.64509035 0.602865424,0.427010121 0.868132505,0.277684042 C1.13566874,0.127184626 1.44944928,0.0498372624 1.79103106,0.0498372624 Z M1.79103106,0.609535718 C1.539147,0.609535718 1.31624017,0.664479949 1.13225673,0.767969928 C0.957813665,0.866175672 0.819130435,1.00790461 0.723047619,1.18616736 C0.627428571,1.36356067 0.574136646,1.57655925 0.568521739,1.81663743 C0.568430642,1.8205373 0.568256729,1.82442028 0.568016563,1.82827794 L0.568016563,6.74087803 C0.568240166,6.74642395 0.5683147,6.75200363 0.568223602,6.75762551 C0.568082816,6.76649729 0.568016563,6.77563919 0.568016563,6.78511029 C0.568016563,7.04256905 0.621755694,7.27028921 0.723055901,7.45825098 C0.819122153,7.6365053 0.95778882,7.77820047 1.13224017,7.87637245 C1.31619048,7.97990463 1.53906418,8.03483198 1.79103106,8.03483198 C2.04298965,8.03483198 2.26586335,7.97990463 2.44981366,7.87637245 C2.62426501,7.77820047 2.7629234,7.6365053 2.85899793,7.45824254 C2.96029814,7.27028077 3.01404555,7.04256061 3.01404555,6.78511029 C3.01404555,6.77590086 3.01397101,6.76674209 3.01382195,6.75762551 C3.01373085,6.75194454 3.01380538,6.74630577 3.01404555,6.74070921 L3.01404555,1.82839612 C3.0137971,1.82449625 3.01362319,1.82057106 3.01353209,1.81663743 C3.0079089,1.57655925 2.95462526,1.36356067 2.85899793,1.18615892 C2.76291511,1.00789617 2.62424017,0.866175672 2.44986335,0.768012134 C2.26581366,0.664479949 2.04290683,0.609535718 1.79103106,0.609535718 Z" id="path-8"></path>
        <path d="M1.84292588,0.017431224 C2.18462857,0.017431224 2.49841656,0.0947701464 2.76584679,0.24532021 C3.03105839,0.394553435 3.24447205,0.61267587 3.39057557,0.883784162 C3.5378882,1.15720536 3.61355694,1.47790612 3.61355694,1.82711305 C3.61355694,2.17631998 3.5378882,2.49702918 3.39056729,2.77042505 C3.24449689,3.04149958 3.03110228,3.25959669 2.76587826,3.408889 C2.49838592,3.55945595 2.18459959,3.63679487 1.84292588,3.63679487 C1.50125217,3.63679487 1.18746584,3.55945595 0.919969358,3.408889 C0.654750311,3.25959669 0.441358178,3.04149958 0.295287785,2.77042505 C0.147967702,2.49702918 0.0722915114,2.17632842 0.0722915114,1.82711305 C0.0722915114,1.47790612 0.147964389,1.15720536 0.295291097,0.88376728 C0.441380538,0.61267587 0.654793375,0.394553435 0.919956936,0.245353975 C1.1874352,0.0947701464 1.50122319,0.017431224 1.84292588,0.017431224 Z M1.84292588,0.577129679 C1.59094824,0.577129679 1.36808778,0.632057028 1.18411594,0.735622979 C1.0097234,0.833752751 0.871055072,0.975481686 0.774976398,1.15376977 C0.673658799,1.34181595 0.619910559,1.5695952 0.619910559,1.82711305 C0.619910559,2.08462245 0.673659627,2.31241014 0.774969772,2.50041413 C0.871046791,2.67871065 1.0097118,2.82043958 1.18414658,2.91862844 C1.36809938,3.02216907 1.59097143,3.07709642 1.84292588,3.07709642 C2.09488116,3.07709642 2.31775321,3.02216907 2.50170104,2.91862844 C2.67614079,2.82043958 2.8148058,2.67871065 2.91088282,2.50041413 C3.01219213,2.31241014 3.06594617,2.08462245 3.06594617,1.82711305 C3.06594617,1.5695952 3.01219379,1.34181595 2.91088613,1.15378665 C2.81479752,0.975481686 2.67612836,0.833752751 2.50168778,0.735597655 C2.3177648,0.632057028 2.09490352,0.577129679 1.84292588,0.577129679 Z" id="path-10"></path>
    </defs>
    <g id="Symbols" stroke="none" stroke-width="1" fill="none" fill-rule="evenodd" opacity="0.57">
        <g id="Footer/Desktop" transform="translate(-129.000000, -329.000000)">
            <g id="Logo-footer" transform="translate(129.000000, 329.000000)">
                <g id="Logo/Mixin/Mark" transform="translate(0.000000, 0.119695)" filter="url(#filter-1)">
                    <g>
                        <g id="Slider-5" transform="translate(16.376812, 7.458159)">
                            <mask id="mask-3" fill="white">
                                <use xlink:href="#path-2"></use>
                            </mask>
                            <g id="Clip-22"></g>
                            <polygon id="Fill-21" fill="#6B6775" mask="url(#mask-3)" points="-0.383751553 -0.404632312 3.98568116 -0.404632312 3.98568116 4.05885841 -0.383751553 4.05885841"></polygon>
                        </g>
                        <g id="Slider-4" transform="translate(12.236025, 0.029841)">
                            <mask id="mask-5" fill="white">
                                <use xlink:href="#path-4"></use>
                            </mask>
                            <g id="Clip-10"></g>
                            <polygon id="Fill-9" fill="#005A8A" mask="url(#mask-5)" points="-0.331850932 -0.401610337 4.0375735 -0.401610337 4.0375735 13.9125226 -0.331850932 13.9125226"></polygon>
                        </g>
                        <g id="Slider-3" transform="translate(8.178054, 7.373747)">
                            <mask id="mask-7" fill="white">
                                <use xlink:href="#path-6"></use>
                            </mask>
                            <g id="Clip-16"></g>
                            <polygon id="Fill-15" fill="#FFB700" mask="url(#mask-7)" points="-0.362766046 -0.357530022 4.00665839 -0.357530022 4.00665839 9.03128263 -0.362766046 9.03128263"></polygon>
                        </g>
                        <g id="Slider-2" transform="translate(4.120083, 4.925778)">
                            <mask id="mask-9" fill="white">
                                <use xlink:href="#path-8"></use>
                            </mask>
                            <g id="Clip-13"></g>
                            <polygon id="Fill-12" fill="#FF4500" mask="url(#mask-9)" points="-0.393681159 -0.372226274 3.97574327 -0.372226274 3.97574327 9.01658553 -0.393681159 9.01658553"></polygon>
                        </g>
                        <g id="Slider-1" transform="translate(-0.020704, 7.458159)">
                            <mask id="mask-11" fill="white">
                                <use xlink:href="#path-10"></use>
                            </mask>
                            <g id="Clip-19"></g>
                            <polygon id="Fill-18" fill="#B60000" mask="url(#mask-11)" points="-0.341787164 -0.404632312 4.02763561 -0.404632312 4.02763561 4.05885841 -0.341787164 4.05885841"></polygon>
                        </g>
                    </g>
                </g>
            </g>
        </g>
    </g>
</svg>