<?xml version="1.0" encoding="UTF-8"?>
<svg width="133px" height="31px" viewBox="0 0 133 31" version="1.1" xmlns="http://www.w3.org/2000/svg" xmlns:xlink="http://www.w3.org/1999/xlink">
    <title>Logo/Full/Horizontal/Color-white</title>
    <defs>
        <path d="M3.57399795,0.0337729966 C4.25205949,0.0337729966 4.87467045,0.183600804 5.40570745,0.475389681 C5.93201126,0.76470896 6.3553683,1.18719034 6.64522655,1.71239723 C6.93761572,2.24200361 7.08779572,2.86337769 7.08779572,3.54004789 C7.08779572,4.21668538 6.93761572,4.83805945 6.64524298,5.36773125 C6.35528613,5.89297085 5.93189621,6.31548494 5.4055924,6.6047388 C4.87462115,6.89646226 4.25201019,7.04629007 3.57399795,7.04629007 C2.89596929,7.04629007 2.27335833,6.89646226 1.74233777,6.60470609 C1.21608326,6.31548494 0.792693344,5.89297085 0.502736495,5.36773125 C0.210363751,4.83805945 0.0601837544,4.21668538 0.0601837544,3.54004789 C0.0601837544,2.86337769 0.210363751,2.24200361 0.502720061,1.7124463 C0.792627605,1.18719034 1.21596822,0.76470896 1.74237064,0.475340616 C2.27332546,0.183600804 2.89591999,0.0337729966 3.57399795,0.0337729966 Z M3.57399795,1.11818875 C3.07395675,1.11818875 2.63174913,1.22459414 2.26666942,1.4252041 C1.92044026,1.61552679 1.64535679,1.89006119 1.45461603,2.23564153 C1.25358717,2.59976841 1.14692618,3.04107435 1.14692618,3.54004789 C1.14692618,4.03902142 1.25358717,4.48032736 1.45461603,4.84451966 C1.64537323,5.19005094 1.920506,5.46461804 2.26655437,5.65479354 C2.631782,5.85545257 3.07400605,5.96187431 3.57399795,5.96187431 C4.07398986,5.96187431 4.51621391,5.85545257 4.88135936,5.65484261 C5.22747347,5.46461804 5.50260625,5.19005094 5.69336344,4.84451966 C5.8943923,4.48032736 6.0010533,4.03900507 6.0010533,3.54004789 C6.0010533,3.04107435 5.8943923,2.59976841 5.69333057,2.23557611 C5.50263912,1.89006119 5.22753921,1.61552679 4.88140867,1.42525317 C4.51623034,1.22459414 4.07402273,1.11818875 3.57399795,1.11818875 Z" id="path-1"></path>
        <path d="M3.67697758,0.039628073 C4.35502268,0.039628073 4.97760078,0.189341395 5.50840769,0.480868594 C6.03477724,0.770024322 6.45826576,1.19222767 6.74814044,1.71704204 C7.01890159,2.20713484 7.16779968,2.77612396 7.18821154,3.39509386 C7.18992075,3.4125446 7.19077535,3.43025703 7.19077535,3.44814935 L7.19077535,22.571663 C7.19077535,22.5771256 7.19077535,22.5825881 7.19054527,22.588018 C7.19077535,22.6026066 7.19077535,22.6177022 7.19077535,22.6337628 C7.19077535,23.3097951 7.04054605,23.9308094 6.74814044,24.4604321 C6.45818359,24.9852629 6.03464576,25.4075316 5.50834195,25.6965729 C4.97753504,25.988051 4.35497338,26.1377643 3.67697758,26.1377643 C2.99896535,26.1377643 2.37627222,25.9880347 1.84546531,25.6965565 C1.31909576,25.4074989 0.895557931,24.9851647 0.605814733,24.4604158 C0.31337625,23.9310547 0.163179819,23.3100241 0.163179819,22.6337628 C0.163179819,22.6181438 0.163261992,22.6025739 0.16339347,22.5870367 L0.163179819,22.571663 L0.163179819,22.571663 L0.163179819,3.44814935 C0.163179819,3.43102571 0.163985118,3.41408197 0.165529977,3.39735084 C0.185662445,2.77762862 0.334692015,2.20782174 0.60573256,1.71722195 C0.895475758,1.1923258 1.31898072,0.770057032 1.84544887,0.480852239 C2.37620648,0.189341395 2.99891605,0.039628073 3.67697758,0.039628073 Z M3.67697758,1.12402748 C3.1768542,1.12402748 2.73446581,1.23040015 2.36950113,1.43084656 C2.02317337,1.62108748 1.74807347,1.89540926 1.55752992,2.24058073 C1.36774238,2.58410036 1.26201816,2.99632717 1.25090832,3.46110248 C1.25072754,3.46851128 1.25039885,3.47590372 1.24992224,3.4832471 L1.24992224,22.5498782 C1.25030024,22.559544 1.25043172,22.5692915 1.25030024,22.5790882 C1.25005372,22.5972095 1.24992224,22.6154452 1.24992224,22.6337628 C1.24992224,23.1322293 1.35655037,23.5730773 1.55759566,23.9370079 C1.7480899,24.2820322 2.02325555,24.5564031 2.3694354,24.7465295 C2.73449868,24.9469923 3.17688707,25.0533649 3.67697758,25.0533649 C4.17703523,25.0533649 4.61929215,24.9470086 4.98437186,24.7465295 C5.33055171,24.5564194 5.60576666,24.2820159 5.79635951,23.9370407 C5.99737193,23.5729628 6.10403293,23.1320167 6.10403293,22.6337628 C6.10403293,22.6143658 6.10390145,22.5978636 6.10358919,22.5828007 C6.10334267,22.5705836 6.10349058,22.5584645 6.10403293,22.5464436 L6.10403293,3.4853896 C6.10349058,3.47734296 6.10311259,3.4692309 6.10291537,3.46110248 C6.09180553,2.99616362 5.98614705,2.58395316 5.79640881,2.24053167 C5.60579953,1.89542561 5.33063388,1.62108748 4.98435543,1.43086292 C4.61932502,1.23038379 4.17708453,1.12402748 3.67697758,1.12402748 Z" id="path-3"></path>
        <path d="M3.61562697,0.125033685 C4.29349129,0.125033685 4.91610225,0.274877847 5.44715568,0.56655224 C5.97341019,0.855806098 6.39691515,1.27832019 6.68687199,1.8034126 C6.95756741,2.29375071 7.10644907,2.86301788 7.12686093,3.48216768 C7.1285537,3.49963477 7.12942474,3.51733084 7.12942474,3.53522317 L7.12942474,13.1124927 C7.12942474,13.1179552 7.12934256,13.1234178 7.12917822,13.1288476 C7.12942474,13.1434526 7.12942474,13.1585482 7.12942474,13.1746252 C7.12942474,13.8511809 6.97924474,14.4724732 6.68685556,15.0020959 C6.39693158,15.5271703 5.97341019,15.9496534 5.44710638,16.2388582 C4.91628303,16.5305407 4.29367207,16.680362 3.61562697,16.680362 C2.937549,16.680362 2.31480656,16.5305293 1.78399965,16.2388565 C1.2576301,15.9496157 0.834108707,15.5270771 0.544398379,15.0020632 C0.2520092,14.4724732 0.101829203,13.8511809 0.101829203,13.1746252 C0.101829203,13.1589898 0.101829203,13.1434036 0.102042854,13.1278663 L0.101829203,13.1201856 L0.101829203,13.1201856 L0.101829203,3.53522317 C0.101829203,3.51809953 0.102618067,3.50115579 0.104179361,3.48442466 C0.124295394,2.86452253 0.27330853,2.29443762 0.544349075,1.80347802 C0.834108707,1.27841832 1.2576301,0.855838808 1.78409826,0.566470465 C2.31498734,0.274894202 2.93774622,0.125033685 3.61562697,0.125033685 Z M3.61562697,1.20943309 C3.11573367,1.20943309 2.67332884,1.31590389 2.30826556,1.51641572 C1.96205284,1.70670571 1.68683789,1.98130552 1.49624505,2.3266569 C1.30642463,2.67050362 1.20066754,3.0831066 1.18954127,3.54815995 L1.18857163,3.57032092 L1.18857163,3.57032092 L1.18857163,13.0906915 C1.18894962,13.1003736 1.1890811,13.1101049 1.18894962,13.1199015 C1.18868667,13.1380391 1.18857163,13.1562913 1.18857163,13.1746252 C1.18857163,13.6734842 1.29521619,14.114692 1.49629435,14.4789007 C1.68682146,14.8241703 1.96200354,15.0987047 2.30821626,15.2889505 C2.67323023,15.4895229 3.11558576,15.5959511 3.61562697,15.5959511 C4.11563531,15.5959511 4.55784292,15.4895408 4.92288977,15.2889521 C5.26910249,15.098721 5.54431744,14.8241539 5.73500889,14.4788026 C5.93603775,14.114692 6.04268231,13.6734842 6.04268231,13.1746252 C6.04268231,13.1552118 6.04255083,13.1386933 6.04223857,13.1236141 C6.04197562,13.1114132 6.04213997,13.0992942 6.04268231,13.0872733 L6.04268231,3.57246342 C6.04213997,3.56441678 6.04176197,3.55630472 6.04156475,3.54815995 C6.03043848,3.08294305 5.92474713,2.67035643 5.73502533,2.32668961 C5.544301,1.98130552 5.26905318,1.70668935 4.92298838,1.51648114 C4.55774431,1.31588753 4.11547096,1.20943309 3.61562697,1.20943309 Z" id="path-5"></path>
        <path d="M3.55427635,0.0965596958 C4.23212424,0.0965596958 4.85481737,0.246420213 5.38585437,0.538078251 C5.91215818,0.827315754 6.33563027,1.2498462 6.62550494,1.77492225 C6.89643045,2.26565289 7.04541071,2.8355579 7.06565822,3.45524741 C7.06725239,3.4722075 7.06807412,3.48938021 7.06807412,3.50676554 L7.06807412,13.0840023 C7.06807412,13.0894649 7.06799195,13.0949111 7.0678276,13.1003246 C7.06799195,13.1155674 7.06807412,13.1308429 7.06807412,13.1461512 C7.06807412,13.8226578 6.91789412,14.4439338 6.62552138,14.9735565 C6.3356467,15.498698 5.91215818,15.9211957 5.3858215,16.2104005 C4.85499816,16.5020586 4.23230502,16.6518864 3.55427635,16.6518864 C2.87623125,16.6518864 2.25353812,16.5020586 1.72271477,16.2104005 C1.19636166,15.9211957 0.772873134,15.4986816 0.483014894,14.9735565 C0.190642149,14.4439501 0.0404785874,13.8226742 0.0404785874,13.1461512 C0.0404785874,13.1305976 0.0404785874,13.1152403 0.0407086727,13.1000793 L0.0404785874,13.0920531 L0.0404785874,13.0920531 L0.0404785874,3.50676554 C0.0404785874,3.48946199 0.0412838861,3.4723547 0.0428616143,3.45547638 C0.0630762559,2.83568874 0.212056522,2.26570195 0.483014894,1.77495496 C0.772889569,1.24986255 1.19637809,0.827332109 1.72279695,0.538012831 C2.2537189,0.246420213 2.87641204,0.0965596958 3.55427635,0.0965596958 Z M3.55427635,1.18097545 C3.05441592,1.18097545 2.6120604,1.2874299 2.24694781,1.48794174 C1.90076797,1.67821536 1.62555302,1.95281518 1.434878,2.29819926 C1.24512332,2.64189879 1.13936623,3.05458355 1.12822353,3.51973502 C1.12804275,3.52729102 1.12769762,3.5348143 1.12722101,3.54228852 L1.12722101,13.0604512 C1.12766475,13.0711964 1.12781266,13.082007 1.12763188,13.0928994 C1.12735249,13.1100885 1.12722101,13.1278009 1.12722101,13.1461512 C1.12722101,13.6449775 1.23386557,14.0861853 1.43489443,14.4503613 C1.62553658,14.795729 1.90071866,15.0702634 2.24691495,15.2604716 C2.61196179,15.4610652 3.05425158,15.567487 3.55427635,15.567487 C4.05428469,15.567487 4.49657448,15.4610652 4.86162133,15.2604716 C5.20781761,15.0702634 5.48298326,14.795729 5.67364184,14.4503449 C5.8746707,14.086169 5.9813317,13.6449612 5.9813317,13.1461512 C5.9813317,13.1283079 5.98118378,13.1105628 5.98088796,13.0928994 C5.98070718,13.0818925 5.98085509,13.0709674 5.9813317,13.0601241 L5.9813317,3.54251749 C5.98083865,3.53496149 5.98049353,3.52735644 5.98031275,3.51973502 C5.96915361,3.05458355 5.86341295,2.64189879 5.67364184,2.29818291 C5.48296682,1.95279882 5.2077683,1.67821536 4.86171993,1.48802351 C4.49647587,1.2874299 4.05412035,1.18097545 3.55427635,1.18097545 Z" id="path-7"></path>
        <path d="M3.65726091,0.0337729966 C4.33536518,0.0337729966 4.95807311,0.183617159 5.48878469,0.475307906 C6.01509343,0.76444728 6.4386099,1.1870595 6.72855031,1.71233181 C7.02089019,2.24208539 7.17105375,2.86344311 7.17105375,3.54003153 C7.17105375,4.21661996 7.02089019,4.83799403 6.72853388,5.36769854 C6.4386592,5.89290543 6.01518054,6.31546859 5.48884715,6.60472245 C4.9580123,6.8964459 4.33530766,7.04629007 3.65726091,7.04629007 C2.97921417,7.04629007 2.35650953,6.8964459 1.82566646,6.60472245 C1.29934293,6.31546859 0.875869199,5.89290543 0.585994524,5.36769854 C0.293639857,4.83799403 0.143461504,4.21663631 0.143461504,3.54003153 C0.143461504,2.86344311 0.293633283,2.24208539 0.586001098,1.7122991 C0.875913572,1.1870595 1.29942839,0.76444728 1.82564181,0.475373326 C2.35644872,0.183617159 2.97915665,0.0337729966 3.65726091,0.0337729966 Z M3.65726091,1.11818875 C3.15721477,1.11818875 2.71495128,1.22461049 2.34986171,1.42526952 C2.00378211,1.61539595 1.72859674,1.88999577 1.53792994,2.23542892 C1.33686657,2.59976841 1.23020393,3.0410907 1.23020393,3.54003153 C1.23020393,4.038956 1.33686821,4.48029465 1.53791679,4.84455237 C1.72858031,5.19000188 2.0037591,5.46460169 2.34992251,5.65484261 C2.71497429,5.85545257 3.15726079,5.96187431 3.65726091,5.96187431 C4.15726268,5.96187431 4.59954918,5.85545257 4.9645911,5.65484261 C5.31076437,5.46460169 5.58594316,5.19000188 5.77660668,4.84455237 C5.97765362,4.48029465 6.08432776,4.038956 6.08432776,3.54003153 C6.08432776,3.0410907 5.9776569,2.59976841 5.77661325,2.23546163 C5.58592673,1.88999577 5.31073972,1.61539595 4.9645648,1.42522046 C4.59957219,1.22461049 4.15730705,1.11818875 3.65726091,1.11818875 Z" id="path-9"></path>
        <filter id="filter-11">
            <feColorMatrix in="SourceGraphic" type="matrix" values="0 0 0 0 1.000000 0 0 0 0 1.000000 0 0 0 0 1.000000 0 0 0 1.000000 0"></feColorMatrix>
        </filter>
        <path d="M60.0035109,12.5873805 L60.5526784,13.4960792 C59.5597699,14.0761078 58.4328038,14.3661193 57.1717713,14.3661193 C55.926318,14.3661193 54.8098937,14.0832296 53.8224982,13.5174451 L54.3254123,12.685277 C55.1332453,13.1516912 56.0509347,13.3848956 57.0784981,13.3848956 C58.1712057,13.3848956 59.1462011,13.119059 60.0035109,12.5873805 Z M61.1210097,3.40912847 L61.1210097,4.39034452 L60.0148629,4.39034452 C60.9333449,5.1532595 61.4803988,6.30760215 61.4803988,7.66109254 C61.4803988,10.1141511 59.6834618,11.913061 57.135082,11.913061 C54.5867022,11.913061 52.7897652,10.1141511 52.7897652,7.66109254 C52.7897652,5.21327581 54.5790226,3.41682287 57.1187453,3.40912847 L61.1210097,3.40912847 Z M83.0311721,0.735619651 L83.0311721,3.57999688 L85.1107027,3.57999688 L85.1107027,4.57716451 L83.0311721,4.57716451 L83.0311721,8.68026 C83.0311721,10.1514896 83.8498816,10.8544103 85.1107027,10.8544103 L85.1107027,11.8679243 C83.2276613,11.8679243 81.9340964,10.8053693 81.9340964,8.68026 L81.9340964,0.735619651 L83.0311721,0.735619651 Z M66.7638369,3.36529239 C69.3218338,3.36529239 71.0927554,5.16392614 71.0927554,7.616611 L71.0927554,7.97633687 L63.5335529,7.97633687 C63.681129,9.66051139 64.9437291,10.85415 66.7638369,10.85415 C68.0428353,10.85415 69.0266816,10.3309107 69.5514014,9.39889218 L70.7484171,9.39889218 C70.1253074,10.8868516 68.6495467,11.8679243 66.7638369,11.8679243 C64.2058488,11.8679243 62.4021306,10.0692915 62.4021306,7.616611 C62.4021306,5.16392614 64.2058488,3.36529239 66.7638369,3.36529239 Z M47.1358766,3.36529239 C49.6890562,3.36529239 51.4730031,5.11487545 51.4730031,7.66566433 L51.4730031,11.6553585 L50.45828,11.6553585 L50.45828,9.74226723 L50.425545,9.74226723 C49.8854485,11.0340125 48.6088631,11.8679243 46.9722105,11.8679243 C44.6972563,11.8679243 42.7823782,10.2491548 42.7823782,7.616611 C42.7823782,5.16392614 44.582697,3.36529239 47.1358766,3.36529239 Z M41.5533938,0.0343741748 L41.5533938,7.5633262 C41.5533938,10.1329914 39.7694469,11.8679243 37.2162673,11.8679243 C34.6630878,11.8679243 32.862769,10.0675222 32.862769,7.61242789 C32.862769,4.97729081 34.7776558,3.35692967 37.0526012,3.35692967 C38.6074208,3.35692967 39.8349081,4.09345507 40.4241027,5.23917296 L40.4568377,5.23917296 L40.4568377,0.0343741748 L41.5533938,0.0343741748 Z M27.5518272,3.36529239 C30.100207,3.36529239 31.897144,5.16392614 31.897144,7.616611 C31.897144,10.0692915 30.100207,11.8679243 27.5518272,11.8679243 C25.0034473,11.8679243 23.2065104,10.0692915 23.2065104,7.616611 C23.2065104,5.16392614 25.0034473,3.36529239 27.5518272,3.36529239 Z M17.8955686,3.36529239 C20.4439484,3.36529239 22.2408854,5.16392614 22.2408854,7.616611 C22.2408854,10.0692915 20.4439484,11.8679243 17.8955686,11.8679243 C15.3471887,11.8679243 13.5502606,10.0692915 13.5502606,7.616611 C13.5502606,5.16392614 15.3471887,3.36529239 17.8955686,3.36529239 Z M76.3598039,3.36529239 C78.7497665,3.36529239 80.3539836,4.75404774 80.3539836,7.43351862 L80.3539836,11.6487844 L79.2572249,11.6487844 L79.2572249,7.43351862 C79.2572249,5.44025616 78.1113505,4.37827091 76.3598039,4.37827091 C74.6082574,4.37827091 73.4623918,5.44025616 73.4623918,7.43351862 L73.4623918,11.6487844 L72.3656243,11.6487844 L72.3656243,7.43351862 C72.3656243,4.75404774 73.9698502,3.36529239 76.3598039,3.36529239 Z M9.13457717,3.36529239 C11.0010353,3.36529239 12.4090626,4.52530867 12.4090626,6.92703287 L12.4090626,11.6487844 L11.3121102,11.6487844 L11.3121102,6.92703287 C11.3121102,5.21151709 10.3625048,4.37827091 9.05271768,4.37827091 C7.74291822,4.37827091 6.77694449,5.2441941 6.77694449,6.92703287 L6.77694449,11.6487844 L5.67999116,11.6487844 L5.67999116,6.92703287 C5.67999116,5.2441941 4.69764465,4.37827091 3.3878496,4.37827091 C2.07805455,4.37827091 1.1284536,5.21151709 1.1284536,6.92703287 L1.1284536,11.6487844 L0.0315000264,11.6487844 L0.0315000264,6.92703287 C0.0315000264,4.52530867 1.43952936,3.36529239 3.30598747,3.36529239 C4.61578252,3.36529239 5.67999116,3.98614679 6.20390954,5.14616307 L6.23665422,5.14616307 C6.74419981,3.98614679 7.80840846,3.36529239 9.13457717,3.36529239 Z M57.135082,4.39034452 C55.2074605,4.39034452 53.9005972,5.76406106 53.9005972,7.62838563 C53.9005972,9.49270932 55.2074605,10.8664223 57.135082,10.8664223 C59.0627036,10.8664223 60.3695668,9.49270932 60.3695668,7.62838563 C60.3695668,5.76406106 59.0627036,4.39034452 57.135082,4.39034452 Z M47.1358766,4.37907113 C45.2046178,4.37907113 43.8952975,5.75257311 43.8952975,7.616611 C43.8952975,9.48064802 45.2046178,10.85415 47.1358766,10.85415 C49.0671266,10.85415 50.3764469,9.48064802 50.3764469,7.616611 C50.3764469,5.75257311 49.0671266,4.37907113 47.1358766,4.37907113 Z M27.5518272,4.37907113 C25.6242056,4.37907113 24.3173424,5.75257311 24.3173424,7.616611 C24.3173424,9.48064802 25.6242056,10.85415 27.5518272,10.85415 C29.4794487,10.85415 30.786312,9.48064802 30.786312,7.616611 C30.786312,5.75257311 29.4794487,4.37907113 27.5518272,4.37907113 Z M17.8955686,4.37907113 C15.967947,4.37907113 14.6610926,5.75257311 14.6610926,7.616611 C14.6610926,9.48064802 15.967947,10.85415 17.8955686,10.85415 C19.8231901,10.85415 21.1300534,9.48064802 21.1300534,7.616611 C21.1300534,5.75257311 19.8231901,4.37907113 17.8955686,4.37907113 Z M37.2162673,4.3717021 C35.2850174,4.3717021 33.9756882,5.74655653 33.9756882,7.61242789 C33.9756882,9.47829925 35.2850174,10.8531519 37.2162673,10.8531519 C39.1475173,10.8531519 40.4568377,9.47829925 40.4568377,7.61242789 C40.4568377,5.74655653 39.1475173,4.3717021 37.2162673,4.3717021 Z M66.7638369,4.37907113 C65.0421102,4.37907113 63.8287051,5.42554447 63.5663496,6.96256253 L63.5663496,6.99526504 L69.9449435,6.99526504 L69.9449435,6.96256253 C69.6825792,5.42554447 68.469174,4.37907113 66.7638369,4.37907113 Z" id="path-12"></path>
        <path d="M60.0035109,12.5873805 L60.5526784,13.4960792 C59.5597699,14.0761078 58.4328038,14.3661193 57.1717713,14.3661193 C55.926318,14.3661193 54.8098937,14.0832296 53.8224982,13.5174451 L54.3254123,12.685277 C55.1332453,13.1516912 56.0509347,13.3848956 57.0784981,13.3848956 C58.1712057,13.3848956 59.1462011,13.119059 60.0035109,12.5873805 Z M61.1210097,3.40912847 L61.1210097,4.39034452 L60.0148629,4.39034452 C60.9333449,5.1532595 61.4803988,6.30760215 61.4803988,7.66109254 C61.4803988,10.1141511 59.6834618,11.913061 57.135082,11.913061 C54.5867022,11.913061 52.7897652,10.1141511 52.7897652,7.66109254 C52.7897652,5.21327581 54.5790226,3.41682287 57.1187453,3.40912847 L61.1210097,3.40912847 Z M66.7638369,3.36529239 C69.3218338,3.36529239 71.0927554,5.16392614 71.0927554,7.616611 L71.0927554,7.97633687 L63.5335529,7.97633687 C63.681129,9.66051139 64.9437291,10.85415 66.7638369,10.85415 C68.0428353,10.85415 69.0266816,10.3309107 69.5514014,9.39889218 L70.7484171,9.39889218 C70.1253074,10.8868516 68.6495467,11.8679243 66.7638369,11.8679243 C64.2058488,11.8679243 62.4021306,10.0692915 62.4021306,7.616611 C62.4021306,5.16392614 64.2058488,3.36529239 66.7638369,3.36529239 Z M47.1358766,3.36529239 C49.6890562,3.36529239 51.4730031,5.11487545 51.4730031,7.66566433 L51.4730031,11.6553585 L50.45828,11.6553585 L50.45828,9.74226723 L50.425545,9.74226723 C49.8854485,11.0340125 48.6088631,11.8679243 46.9722105,11.8679243 C44.6972563,11.8679243 42.7823782,10.2491548 42.7823782,7.616611 C42.7823782,5.16392614 44.582697,3.36529239 47.1358766,3.36529239 Z M41.5533938,0.0343741748 L41.5533938,7.5633262 C41.5533938,10.1329914 39.7694469,11.8679243 37.2162673,11.8679243 C34.6630878,11.8679243 32.862769,10.0675222 32.862769,7.61242789 C32.862769,4.97729081 34.7776558,3.35692967 37.0526012,3.35692967 C38.6074208,3.35692967 39.8349081,4.09345507 40.4241027,5.23917296 L40.4568377,5.23917296 L40.4568377,0.0343741748 L41.5533938,0.0343741748 Z M27.5518272,3.36529239 C30.100207,3.36529239 31.897144,5.16392614 31.897144,7.616611 C31.897144,10.0692915 30.100207,11.8679243 27.5518272,11.8679243 C25.0034473,11.8679243 23.2065104,10.0692915 23.2065104,7.616611 C23.2065104,5.16392614 25.0034473,3.36529239 27.5518272,3.36529239 Z M17.8955686,3.36529239 C20.4439484,3.36529239 22.2408854,5.16392614 22.2408854,7.616611 C22.2408854,10.0692915 20.4439484,11.8679243 17.8955686,11.8679243 C15.3471887,11.8679243 13.5502606,10.0692915 13.5502606,7.616611 C13.5502606,5.16392614 15.3471887,3.36529239 17.8955686,3.36529239 Z M83.0311721,0.735619651 L83.0311721,3.57999688 L85.0942427,3.58004964 L85.0942427,4.57724366 L83.0311721,4.57716451 L83.0311721,8.68026 C83.0311721,10.145096 83.8427811,10.8482863 85.09429,10.8543705 L85.0942427,11.8678399 L85.054389,11.8676056 C83.2019194,11.846567 81.9340964,10.7841182 81.9340964,8.68026 L81.9340964,0.735619651 L83.0311721,0.735619651 Z M76.3598039,3.36529239 C78.7497665,3.36529239 80.3539836,4.75404774 80.3539836,7.43351862 L80.3539836,11.6487844 L79.2572249,11.6487844 L79.2572249,7.43351862 C79.2572249,5.44025616 78.1113505,4.37827091 76.3598039,4.37827091 C74.6082574,4.37827091 73.4623918,5.44025616 73.4623918,7.43351862 L73.4623918,11.6487844 L72.3656243,11.6487844 L72.3656243,7.43351862 C72.3656243,4.75404774 73.9698502,3.36529239 76.3598039,3.36529239 Z M9.13457717,3.36529239 C11.0010353,3.36529239 12.4090626,4.52530867 12.4090626,6.92703287 L12.4090626,11.6487844 L11.3121102,11.6487844 L11.3121102,6.92703287 C11.3121102,5.21151709 10.3625048,4.37827091 9.05271768,4.37827091 C7.74291822,4.37827091 6.77694449,5.2441941 6.77694449,6.92703287 L6.77694449,11.6487844 L5.67999116,11.6487844 L5.67999116,6.92703287 C5.67999116,5.2441941 4.69764465,4.37827091 3.3878496,4.37827091 C2.07805455,4.37827091 1.1284536,5.21151709 1.1284536,6.92703287 L1.1284536,11.6487844 L0.0315000264,11.6487844 L0.0315000264,6.92703287 C0.0315000264,4.52530867 1.43952936,3.36529239 3.30598747,3.36529239 C4.61578252,3.36529239 5.67999116,3.98614679 6.20390954,5.14616307 L6.23665422,5.14616307 C6.74419981,3.98614679 7.80840846,3.36529239 9.13457717,3.36529239 Z M57.135082,4.39034452 C55.2074605,4.39034452 53.9005972,5.76406106 53.9005972,7.62838563 C53.9005972,9.49270932 55.2074605,10.8664223 57.135082,10.8664223 C59.0627036,10.8664223 60.3695668,9.49270932 60.3695668,7.62838563 C60.3695668,5.76406106 59.0627036,4.39034452 57.135082,4.39034452 Z M47.1358766,4.37907113 C45.2046178,4.37907113 43.8952975,5.75257311 43.8952975,7.616611 C43.8952975,9.48064802 45.2046178,10.85415 47.1358766,10.85415 C49.0671266,10.85415 50.3764469,9.48064802 50.3764469,7.616611 C50.3764469,5.75257311 49.0671266,4.37907113 47.1358766,4.37907113 Z M27.5518272,4.37907113 C25.6242056,4.37907113 24.3173424,5.75257311 24.3173424,7.616611 C24.3173424,9.48064802 25.6242056,10.85415 27.5518272,10.85415 C29.4794487,10.85415 30.786312,9.48064802 30.786312,7.616611 C30.786312,5.75257311 29.4794487,4.37907113 27.5518272,4.37907113 Z M17.8955686,4.37907113 C15.967947,4.37907113 14.6610926,5.75257311 14.6610926,7.616611 C14.6610926,9.48064802 15.967947,10.85415 17.8955686,10.85415 C19.8231901,10.85415 21.1300534,9.48064802 21.1300534,7.616611 C21.1300534,5.75257311 19.8231901,4.37907113 17.8955686,4.37907113 Z M37.2162673,4.3717021 C35.2850174,4.3717021 33.9756882,5.74655653 33.9756882,7.61242789 C33.9756882,9.47829925 35.2850174,10.8531519 37.2162673,10.8531519 C39.1475173,10.8531519 40.4568377,9.47829925 40.4568377,7.61242789 C40.4568377,5.74655653 39.1475173,4.3717021 37.2162673,4.3717021 Z M66.7638369,4.37907113 C65.0421102,4.37907113 63.8287051,5.42554447 63.5663496,6.96256253 L63.5663496,6.99526504 L69.9449435,6.99526504 L69.9449435,6.96256253 C69.6825792,5.42554447 68.469174,4.37907113 66.7638369,4.37907113 Z" id="path-14"></path>
        <linearGradient x1="0%" y1="5.73692135e-05%" x2="0%" y2="628.300321%" id="linearGradient-16">
            <stop stop-color="#111111" offset="0%"></stop>
            <stop stop-color="#333333" offset="100%"></stop>
        </linearGradient>
        <path d="M60.0035109,12.5873805 L60.5526784,13.4960792 C59.5597699,14.0761078 58.4328038,14.3661193 57.1717713,14.3661193 C55.926318,14.3661193 54.8098937,14.0832296 53.8224982,13.5174451 L54.3254123,12.685277 C55.1332453,13.1516912 56.0509347,13.3848956 57.0784981,13.3848956 C58.1712057,13.3848956 59.1462011,13.119059 60.0035109,12.5873805 Z M61.1210097,3.40912847 L61.1210097,4.39034452 L60.0148629,4.39034452 C60.9333449,5.1532595 61.4803988,6.30760215 61.4803988,7.66109254 C61.4803988,10.1141511 59.6834618,11.913061 57.135082,11.913061 C54.5867022,11.913061 52.7897652,10.1141511 52.7897652,7.66109254 C52.7897652,5.21327581 54.5790226,3.41682287 57.1187453,3.40912847 L61.1210097,3.40912847 Z M66.7638369,3.36529239 C69.3218338,3.36529239 71.0927554,5.16392614 71.0927554,7.616611 L71.0927554,7.97633687 L63.5335529,7.97633687 C63.681129,9.66051139 64.9437291,10.85415 66.7638369,10.85415 C68.0428353,10.85415 69.0266816,10.3309107 69.5514014,9.39889218 L70.7484171,9.39889218 C70.1253074,10.8868516 68.6495467,11.8679243 66.7638369,11.8679243 C64.2058488,11.8679243 62.4021306,10.0692915 62.4021306,7.616611 C62.4021306,5.16392614 64.2058488,3.36529239 66.7638369,3.36529239 Z M47.1358766,3.36529239 C49.6890562,3.36529239 51.4730031,5.11487545 51.4730031,7.66566433 L51.4730031,11.6553585 L50.45828,11.6553585 L50.45828,9.74226723 L50.425545,9.74226723 C49.8854485,11.0340125 48.6088631,11.8679243 46.9722105,11.8679243 C44.6972563,11.8679243 42.7823782,10.2491548 42.7823782,7.616611 C42.7823782,5.16392614 44.582697,3.36529239 47.1358766,3.36529239 Z M41.5533938,0.0343741748 L41.5533938,7.5633262 C41.5533938,10.1329914 39.7694469,11.8679243 37.2162673,11.8679243 C34.6630878,11.8679243 32.862769,10.0675222 32.862769,7.61242789 C32.862769,4.97729081 34.7776558,3.35692967 37.0526012,3.35692967 C38.6074208,3.35692967 39.8349081,4.09345507 40.4241027,5.23917296 L40.4568377,5.23917296 L40.4568377,0.0343741748 L41.5533938,0.0343741748 Z M27.5518272,3.36529239 C30.100207,3.36529239 31.897144,5.16392614 31.897144,7.616611 C31.897144,10.0692915 30.100207,11.8679243 27.5518272,11.8679243 C25.0034473,11.8679243 23.2065104,10.0692915 23.2065104,7.616611 C23.2065104,5.16392614 25.0034473,3.36529239 27.5518272,3.36529239 Z M17.8955686,3.36529239 C20.4439484,3.36529239 22.2408854,5.16392614 22.2408854,7.616611 C22.2408854,10.0692915 20.4439484,11.8679243 17.8955686,11.8679243 C15.3471887,11.8679243 13.5502606,10.0692915 13.5502606,7.616611 C13.5502606,5.16392614 15.3471887,3.36529239 17.8955686,3.36529239 Z M83.0311721,0.735619651 L83.0311721,3.57999688 L85.0942427,3.58004964 L85.0942427,4.57724366 L83.0311721,4.57716451 L83.0311721,8.68026 C83.0311721,10.145096 83.8427811,10.8482863 85.09429,10.8543705 L85.0942427,11.8678399 L85.054389,11.8676056 C83.2019194,11.846567 81.9340964,10.7841182 81.9340964,8.68026 L81.9340964,0.735619651 L83.0311721,0.735619651 Z M76.3598039,3.36529239 C78.7497665,3.36529239 80.3539836,4.75404774 80.3539836,7.43351862 L80.3539836,11.6487844 L79.2572249,11.6487844 L79.2572249,7.43351862 C79.2572249,5.44025616 78.1113505,4.37827091 76.3598039,4.37827091 C74.6082574,4.37827091 73.4623918,5.44025616 73.4623918,7.43351862 L73.4623918,11.6487844 L72.3656243,11.6487844 L72.3656243,7.43351862 C72.3656243,4.75404774 73.9698502,3.36529239 76.3598039,3.36529239 Z M9.13457717,3.36529239 C11.0010353,3.36529239 12.4090626,4.52530867 12.4090626,6.92703287 L12.4090626,11.6487844 L11.3121102,11.6487844 L11.3121102,6.92703287 C11.3121102,5.21151709 10.3625048,4.37827091 9.05271768,4.37827091 C7.74291822,4.37827091 6.77694449,5.2441941 6.77694449,6.92703287 L6.77694449,11.6487844 L5.67999116,11.6487844 L5.67999116,6.92703287 C5.67999116,5.2441941 4.69764465,4.37827091 3.3878496,4.37827091 C2.07805455,4.37827091 1.1284536,5.21151709 1.1284536,6.92703287 L1.1284536,11.6487844 L0.0315000264,11.6487844 L0.0315000264,6.92703287 C0.0315000264,4.52530867 1.43952936,3.36529239 3.30598747,3.36529239 C4.61578252,3.36529239 5.67999116,3.98614679 6.20390954,5.14616307 L6.23665422,5.14616307 C6.74419981,3.98614679 7.80840846,3.36529239 9.13457717,3.36529239 Z M57.135082,4.39034452 C55.2074605,4.39034452 53.9005972,5.76406106 53.9005972,7.62838563 C53.9005972,9.49270932 55.2074605,10.8664223 57.135082,10.8664223 C59.0627036,10.8664223 60.3695668,9.49270932 60.3695668,7.62838563 C60.3695668,5.76406106 59.0627036,4.39034452 57.135082,4.39034452 Z M47.1358766,4.37907113 C45.2046178,4.37907113 43.8952975,5.75257311 43.8952975,7.616611 C43.8952975,9.48064802 45.2046178,10.85415 47.1358766,10.85415 C49.0671266,10.85415 50.3764469,9.48064802 50.3764469,7.616611 C50.3764469,5.75257311 49.0671266,4.37907113 47.1358766,4.37907113 Z M27.5518272,4.37907113 C25.6242056,4.37907113 24.3173424,5.75257311 24.3173424,7.616611 C24.3173424,9.48064802 25.6242056,10.85415 27.5518272,10.85415 C29.4794487,10.85415 30.786312,9.48064802 30.786312,7.616611 C30.786312,5.75257311 29.4794487,4.37907113 27.5518272,4.37907113 Z M17.8955686,4.37907113 C15.967947,4.37907113 14.6610926,5.75257311 14.6610926,7.616611 C14.6610926,9.48064802 15.967947,10.85415 17.8955686,10.85415 C19.8231901,10.85415 21.1300534,9.48064802 21.1300534,7.616611 C21.1300534,5.75257311 19.8231901,4.37907113 17.8955686,4.37907113 Z M37.2162673,4.3717021 C35.2850174,4.3717021 33.9756882,5.74655653 33.9756882,7.61242789 C33.9756882,9.47829925 35.2850174,10.8531519 37.2162673,10.8531519 C39.1475173,10.8531519 40.4568377,9.47829925 40.4568377,7.61242789 C40.4568377,5.74655653 39.1475173,4.3717021 37.2162673,4.3717021 Z M66.7638369,4.37907113 C65.0421102,4.37907113 63.8287051,5.42554447 63.5663496,6.96256253 L63.5663496,6.99526504 L69.9449435,6.99526504 L69.9449435,6.96256253 C69.6825792,5.42554447 68.469174,4.37907113 66.7638369,4.37907113 Z" id="path-17"></path>
        <linearGradient x1="15.3043054%" y1="48.6556299%" x2="89.7172745%" y2="51.386417%" id="linearGradient-19">
            <stop stop-color="#111111" offset="0%"></stop>
            <stop stop-color="#333333" offset="100%"></stop>
        </linearGradient>
        <path d="M60.0035109,12.5873805 L60.5526784,13.4960792 C59.5597699,14.0761078 58.4328038,14.3661193 57.1717713,14.3661193 C55.926318,14.3661193 54.8098937,14.0832296 53.8224982,13.5174451 L54.3254123,12.685277 C55.1332453,13.1516912 56.0509347,13.3848956 57.0784981,13.3848956 C58.1712057,13.3848956 59.1462011,13.119059 60.0035109,12.5873805 Z M61.1210097,3.40912847 L61.1210097,4.39034452 L60.0148629,4.39034452 C60.9333449,5.1532595 61.4803988,6.30760215 61.4803988,7.66109254 C61.4803988,10.1141511 59.6834618,11.913061 57.135082,11.913061 C54.5867022,11.913061 52.7897652,10.1141511 52.7897652,7.66109254 C52.7897652,5.21327581 54.5790226,3.41682287 57.1187453,3.40912847 L61.1210097,3.40912847 Z M66.7638369,3.36529239 C69.3218338,3.36529239 71.0927554,5.16392614 71.0927554,7.616611 L71.0927554,7.97633687 L63.5335529,7.97633687 C63.681129,9.66051139 64.9437291,10.85415 66.7638369,10.85415 C68.0428353,10.85415 69.0266816,10.3309107 69.5514014,9.39889218 L70.7484171,9.39889218 C70.1253074,10.8868516 68.6495467,11.8679243 66.7638369,11.8679243 C64.2058488,11.8679243 62.4021306,10.0692915 62.4021306,7.616611 C62.4021306,5.16392614 64.2058488,3.36529239 66.7638369,3.36529239 Z M47.1358766,3.36529239 C49.6890562,3.36529239 51.4730031,5.11487545 51.4730031,7.66566433 L51.4730031,11.6553585 L50.45828,11.6553585 L50.45828,9.74226723 L50.425545,9.74226723 C49.8854485,11.0340125 48.6088631,11.8679243 46.9722105,11.8679243 C44.6972563,11.8679243 42.7823782,10.2491548 42.7823782,7.616611 C42.7823782,5.16392614 44.582697,3.36529239 47.1358766,3.36529239 Z M41.5533938,0.0343741748 L41.5533938,7.5633262 C41.5533938,10.1329914 39.7694469,11.8679243 37.2162673,11.8679243 C34.6630878,11.8679243 32.862769,10.0675222 32.862769,7.61242789 C32.862769,4.97729081 34.7776558,3.35692967 37.0526012,3.35692967 C38.6074208,3.35692967 39.8349081,4.09345507 40.4241027,5.23917296 L40.4568377,5.23917296 L40.4568377,0.0343741748 L41.5533938,0.0343741748 Z M27.5518272,3.36529239 C30.100207,3.36529239 31.897144,5.16392614 31.897144,7.616611 C31.897144,10.0692915 30.100207,11.8679243 27.5518272,11.8679243 C25.0034473,11.8679243 23.2065104,10.0692915 23.2065104,7.616611 C23.2065104,5.16392614 25.0034473,3.36529239 27.5518272,3.36529239 Z M17.8955686,3.36529239 C20.4439484,3.36529239 22.2408854,5.16392614 22.2408854,7.616611 C22.2408854,10.0692915 20.4439484,11.8679243 17.8955686,11.8679243 C15.3471887,11.8679243 13.5502606,10.0692915 13.5502606,7.616611 C13.5502606,5.16392614 15.3471887,3.36529239 17.8955686,3.36529239 Z M83.0311721,0.735619651 L83.0311721,3.57999688 L85.0942427,3.58004964 L85.0942427,4.57724366 L83.0311721,4.57716451 L83.0311721,8.68026 C83.0311721,10.145096 83.8427811,10.8482863 85.09429,10.8543705 L85.0942427,11.8678399 L85.054389,11.8676056 C83.2019194,11.846567 81.9340964,10.7841182 81.9340964,8.68026 L81.9340964,0.735619651 L83.0311721,0.735619651 Z M76.3598039,3.36529239 C78.7497665,3.36529239 80.3539836,4.75404774 80.3539836,7.43351862 L80.3539836,11.6487844 L79.2572249,11.6487844 L79.2572249,7.43351862 C79.2572249,5.44025616 78.1113505,4.37827091 76.3598039,4.37827091 C74.6082574,4.37827091 73.4623918,5.44025616 73.4623918,7.43351862 L73.4623918,11.6487844 L72.3656243,11.6487844 L72.3656243,7.43351862 C72.3656243,4.75404774 73.9698502,3.36529239 76.3598039,3.36529239 Z M9.13457717,3.36529239 C11.0010353,3.36529239 12.4090626,4.52530867 12.4090626,6.92703287 L12.4090626,11.6487844 L11.3121102,11.6487844 L11.3121102,6.92703287 C11.3121102,5.21151709 10.3625048,4.37827091 9.05271768,4.37827091 C7.74291822,4.37827091 6.77694449,5.2441941 6.77694449,6.92703287 L6.77694449,11.6487844 L5.67999116,11.6487844 L5.67999116,6.92703287 C5.67999116,5.2441941 4.69764465,4.37827091 3.3878496,4.37827091 C2.07805455,4.37827091 1.1284536,5.21151709 1.1284536,6.92703287 L1.1284536,11.6487844 L0.0315000264,11.6487844 L0.0315000264,6.92703287 C0.0315000264,4.52530867 1.43952936,3.36529239 3.30598747,3.36529239 C4.61578252,3.36529239 5.67999116,3.98614679 6.20390954,5.14616307 L6.23665422,5.14616307 C6.74419981,3.98614679 7.80840846,3.36529239 9.13457717,3.36529239 Z M57.135082,4.39034452 C55.2074605,4.39034452 53.9005972,5.76406106 53.9005972,7.62838563 C53.9005972,9.49270932 55.2074605,10.8664223 57.135082,10.8664223 C59.0627036,10.8664223 60.3695668,9.49270932 60.3695668,7.62838563 C60.3695668,5.76406106 59.0627036,4.39034452 57.135082,4.39034452 Z M47.1358766,4.37907113 C45.2046178,4.37907113 43.8952975,5.75257311 43.8952975,7.616611 C43.8952975,9.48064802 45.2046178,10.85415 47.1358766,10.85415 C49.0671266,10.85415 50.3764469,9.48064802 50.3764469,7.616611 C50.3764469,5.75257311 49.0671266,4.37907113 47.1358766,4.37907113 Z M27.5518272,4.37907113 C25.6242056,4.37907113 24.3173424,5.75257311 24.3173424,7.616611 C24.3173424,9.48064802 25.6242056,10.85415 27.5518272,10.85415 C29.4794487,10.85415 30.786312,9.48064802 30.786312,7.616611 C30.786312,5.75257311 29.4794487,4.37907113 27.5518272,4.37907113 Z M17.8955686,4.37907113 C15.967947,4.37907113 14.6610926,5.75257311 14.6610926,7.616611 C14.6610926,9.48064802 15.967947,10.85415 17.8955686,10.85415 C19.8231901,10.85415 21.1300534,9.48064802 21.1300534,7.616611 C21.1300534,5.75257311 19.8231901,4.37907113 17.8955686,4.37907113 Z M37.2162673,4.3717021 C35.2850174,4.3717021 33.9756882,5.74655653 33.9756882,7.61242789 C33.9756882,9.47829925 35.2850174,10.8531519 37.2162673,10.8531519 C39.1475173,10.8531519 40.4568377,9.47829925 40.4568377,7.61242789 C40.4568377,5.74655653 39.1475173,4.3717021 37.2162673,4.3717021 Z M66.7638369,4.37907113 C65.0421102,4.37907113 63.8287051,5.42554447 63.5663496,6.96256253 L63.5663496,6.99526504 L69.9449435,6.99526504 L69.9449435,6.96256253 C69.6825792,5.42554447 68.469174,4.37907113 66.7638369,4.37907113 Z" id="path-20"></path>
        <path d="M60.0035109,12.5873805 L60.5526784,13.4960792 C59.5597699,14.0761078 58.4328038,14.3661193 57.1717713,14.3661193 C55.926318,14.3661193 54.8098937,14.0832296 53.8224982,13.5174451 L54.3254123,12.685277 C55.1332453,13.1516912 56.0509347,13.3848956 57.0784981,13.3848956 C58.1712057,13.3848956 59.1462011,13.119059 60.0035109,12.5873805 Z M61.1210097,3.40912847 L61.1210097,4.39034452 L60.0148629,4.39034452 C60.9333449,5.1532595 61.4803988,6.30760215 61.4803988,7.66109254 C61.4803988,10.1141511 59.6834618,11.913061 57.135082,11.913061 C54.5867022,11.913061 52.7897652,10.1141511 52.7897652,7.66109254 C52.7897652,5.21327581 54.5790226,3.41682287 57.1187453,3.40912847 L61.1210097,3.40912847 Z M66.7638369,3.36529239 C69.3218338,3.36529239 71.0927554,5.16392614 71.0927554,7.616611 L71.0927554,7.97633687 L63.5335529,7.97633687 C63.681129,9.66051139 64.9437291,10.85415 66.7638369,10.85415 C68.0428353,10.85415 69.0266816,10.3309107 69.5514014,9.39889218 L70.7484171,9.39889218 C70.1253074,10.8868516 68.6495467,11.8679243 66.7638369,11.8679243 C64.2058488,11.8679243 62.4021306,10.0692915 62.4021306,7.616611 C62.4021306,5.16392614 64.2058488,3.36529239 66.7638369,3.36529239 Z M47.1358766,3.36529239 C49.6890562,3.36529239 51.4730031,5.11487545 51.4730031,7.66566433 L51.4730031,11.6553585 L50.45828,11.6553585 L50.45828,9.74226723 L50.425545,9.74226723 C49.8854485,11.0340125 48.6088631,11.8679243 46.9722105,11.8679243 C44.6972563,11.8679243 42.7823782,10.2491548 42.7823782,7.616611 C42.7823782,5.16392614 44.582697,3.36529239 47.1358766,3.36529239 Z M41.5533938,0.0343741748 L41.5533938,7.5633262 C41.5533938,10.1329914 39.7694469,11.8679243 37.2162673,11.8679243 C34.6630878,11.8679243 32.862769,10.0675222 32.862769,7.61242789 C32.862769,4.97729081 34.7776558,3.35692967 37.0526012,3.35692967 C38.6074208,3.35692967 39.8349081,4.09345507 40.4241027,5.23917296 L40.4568377,5.23917296 L40.4568377,0.0343741748 L41.5533938,0.0343741748 Z M27.5518272,3.36529239 C30.100207,3.36529239 31.897144,5.16392614 31.897144,7.616611 C31.897144,10.0692915 30.100207,11.8679243 27.5518272,11.8679243 C25.0034473,11.8679243 23.2065104,10.0692915 23.2065104,7.616611 C23.2065104,5.16392614 25.0034473,3.36529239 27.5518272,3.36529239 Z M17.8955686,3.36529239 C20.4439484,3.36529239 22.2408854,5.16392614 22.2408854,7.616611 C22.2408854,10.0692915 20.4439484,11.8679243 17.8955686,11.8679243 C15.3471887,11.8679243 13.5502606,10.0692915 13.5502606,7.616611 C13.5502606,5.16392614 15.3471887,3.36529239 17.8955686,3.36529239 Z M83.0311721,0.735619651 L83.0311721,3.57999688 L85.0942427,3.58004964 L85.0942427,4.57724366 L83.0311721,4.57716451 L83.0311721,8.68026 C83.0311721,10.145096 83.8427811,10.8482863 85.09429,10.8543705 L85.0942427,11.8678399 L85.054389,11.8676056 C83.2019194,11.846567 81.9340964,10.7841182 81.9340964,8.68026 L81.9340964,0.735619651 L83.0311721,0.735619651 Z M76.3598039,3.36529239 C78.7497665,3.36529239 80.3539836,4.75404774 80.3539836,7.43351862 L80.3539836,11.6487844 L79.2572249,11.6487844 L79.2572249,7.43351862 C79.2572249,5.44025616 78.1113505,4.37827091 76.3598039,4.37827091 C74.6082574,4.37827091 73.4623918,5.44025616 73.4623918,7.43351862 L73.4623918,11.6487844 L72.3656243,11.6487844 L72.3656243,7.43351862 C72.3656243,4.75404774 73.9698502,3.36529239 76.3598039,3.36529239 Z M9.13457717,3.36529239 C11.0010353,3.36529239 12.4090626,4.52530867 12.4090626,6.92703287 L12.4090626,11.6487844 L11.3121102,11.6487844 L11.3121102,6.92703287 C11.3121102,5.21151709 10.3625048,4.37827091 9.05271768,4.37827091 C7.74291822,4.37827091 6.77694449,5.2441941 6.77694449,6.92703287 L6.77694449,11.6487844 L5.67999116,11.6487844 L5.67999116,6.92703287 C5.67999116,5.2441941 4.69764465,4.37827091 3.3878496,4.37827091 C2.07805455,4.37827091 1.1284536,5.21151709 1.1284536,6.92703287 L1.1284536,11.6487844 L0.0315000264,11.6487844 L0.0315000264,6.92703287 C0.0315000264,4.52530867 1.43952936,3.36529239 3.30598747,3.36529239 C4.61578252,3.36529239 5.67999116,3.98614679 6.20390954,5.14616307 L6.23665422,5.14616307 C6.74419981,3.98614679 7.80840846,3.36529239 9.13457717,3.36529239 Z M57.135082,4.39034452 C55.2074605,4.39034452 53.9005972,5.76406106 53.9005972,7.62838563 C53.9005972,9.49270932 55.2074605,10.8664223 57.135082,10.8664223 C59.0627036,10.8664223 60.3695668,9.49270932 60.3695668,7.62838563 C60.3695668,5.76406106 59.0627036,4.39034452 57.135082,4.39034452 Z M47.1358766,4.37907113 C45.2046178,4.37907113 43.8952975,5.75257311 43.8952975,7.616611 C43.8952975,9.48064802 45.2046178,10.85415 47.1358766,10.85415 C49.0671266,10.85415 50.3764469,9.48064802 50.3764469,7.616611 C50.3764469,5.75257311 49.0671266,4.37907113 47.1358766,4.37907113 Z M27.5518272,4.37907113 C25.6242056,4.37907113 24.3173424,5.75257311 24.3173424,7.616611 C24.3173424,9.48064802 25.6242056,10.85415 27.5518272,10.85415 C29.4794487,10.85415 30.786312,9.48064802 30.786312,7.616611 C30.786312,5.75257311 29.4794487,4.37907113 27.5518272,4.37907113 Z M17.8955686,4.37907113 C15.967947,4.37907113 14.6610926,5.75257311 14.6610926,7.616611 C14.6610926,9.48064802 15.967947,10.85415 17.8955686,10.85415 C19.8231901,10.85415 21.1300534,9.48064802 21.1300534,7.616611 C21.1300534,5.75257311 19.8231901,4.37907113 17.8955686,4.37907113 Z M37.2162673,4.3717021 C35.2850174,4.3717021 33.9756882,5.74655653 33.9756882,7.61242789 C33.9756882,9.47829925 35.2850174,10.8531519 37.2162673,10.8531519 C39.1475173,10.8531519 40.4568377,9.47829925 40.4568377,7.61242789 C40.4568377,5.74655653 39.1475173,4.3717021 37.2162673,4.3717021 Z M66.7638369,4.37907113 C65.0421102,4.37907113 63.8287051,5.42554447 63.5663496,6.96256253 L63.5663496,6.99526504 L69.9449435,6.99526504 L69.9449435,6.96256253 C69.6825792,5.42554447 68.469174,4.37907113 66.7638369,4.37907113 Z" id="path-22"></path>
        <path d="M60.0035109,12.5873805 L60.5526784,13.4960792 C59.5597699,14.0761078 58.4328038,14.3661193 57.1717713,14.3661193 C55.926318,14.3661193 54.8098937,14.0832296 53.8224982,13.5174451 L54.3254123,12.685277 C55.1332453,13.1516912 56.0509347,13.3848956 57.0784981,13.3848956 C58.1712057,13.3848956 59.1462011,13.119059 60.0035109,12.5873805 Z M61.1210097,3.40912847 L61.1210097,4.39034452 L60.0148629,4.39034452 C60.9333449,5.1532595 61.4803988,6.30760215 61.4803988,7.66109254 C61.4803988,10.1141511 59.6834618,11.913061 57.135082,11.913061 C54.5867022,11.913061 52.7897652,10.1141511 52.7897652,7.66109254 C52.7897652,5.21327581 54.5790226,3.41682287 57.1187453,3.40912847 L61.1210097,3.40912847 Z M66.7638369,3.36529239 C69.3218338,3.36529239 71.0927554,5.16392614 71.0927554,7.616611 L71.0927554,7.97633687 L63.5335529,7.97633687 C63.681129,9.66051139 64.9437291,10.85415 66.7638369,10.85415 C68.0428353,10.85415 69.0266816,10.3309107 69.5514014,9.39889218 L70.7484171,9.39889218 C70.1253074,10.8868516 68.6495467,11.8679243 66.7638369,11.8679243 C64.2058488,11.8679243 62.4021306,10.0692915 62.4021306,7.616611 C62.4021306,5.16392614 64.2058488,3.36529239 66.7638369,3.36529239 Z M47.1358766,3.36529239 C49.6890562,3.36529239 51.4730031,5.11487545 51.4730031,7.66566433 L51.4730031,11.6553585 L50.45828,11.6553585 L50.45828,9.74226723 L50.425545,9.74226723 C49.8854485,11.0340125 48.6088631,11.8679243 46.9722105,11.8679243 C44.6972563,11.8679243 42.7823782,10.2491548 42.7823782,7.616611 C42.7823782,5.16392614 44.582697,3.36529239 47.1358766,3.36529239 Z M41.5533938,0.0343741748 L41.5533938,7.5633262 C41.5533938,10.1329914 39.7694469,11.8679243 37.2162673,11.8679243 C34.6630878,11.8679243 32.862769,10.0675222 32.862769,7.61242789 C32.862769,4.97729081 34.7776558,3.35692967 37.0526012,3.35692967 C38.6074208,3.35692967 39.8349081,4.09345507 40.4241027,5.23917296 L40.4568377,5.23917296 L40.4568377,0.0343741748 L41.5533938,0.0343741748 Z M27.5518272,3.36529239 C30.100207,3.36529239 31.897144,5.16392614 31.897144,7.616611 C31.897144,10.0692915 30.100207,11.8679243 27.5518272,11.8679243 C25.0034473,11.8679243 23.2065104,10.0692915 23.2065104,7.616611 C23.2065104,5.16392614 25.0034473,3.36529239 27.5518272,3.36529239 Z M17.8955686,3.36529239 C20.4439484,3.36529239 22.2408854,5.16392614 22.2408854,7.616611 C22.2408854,10.0692915 20.4439484,11.8679243 17.8955686,11.8679243 C15.3471887,11.8679243 13.5502606,10.0692915 13.5502606,7.616611 C13.5502606,5.16392614 15.3471887,3.36529239 17.8955686,3.36529239 Z M83.0311721,0.735619651 L83.0311721,3.57999688 L85.0942427,3.58004964 L85.0942427,4.57724366 L83.0311721,4.57716451 L83.0311721,8.68026 C83.0311721,10.145096 83.8427811,10.8482863 85.09429,10.8543705 L85.0942427,11.8678399 L85.054389,11.8676056 C83.2019194,11.846567 81.9340964,10.7841182 81.9340964,8.68026 L81.9340964,0.735619651 L83.0311721,0.735619651 Z M76.3598039,3.36529239 C78.7497665,3.36529239 80.3539836,4.75404774 80.3539836,7.43351862 L80.3539836,11.6487844 L79.2572249,11.6487844 L79.2572249,7.43351862 C79.2572249,5.44025616 78.1113505,4.37827091 76.3598039,4.37827091 C74.6082574,4.37827091 73.4623918,5.44025616 73.4623918,7.43351862 L73.4623918,11.6487844 L72.3656243,11.6487844 L72.3656243,7.43351862 C72.3656243,4.75404774 73.9698502,3.36529239 76.3598039,3.36529239 Z M9.13457717,3.36529239 C11.0010353,3.36529239 12.4090626,4.52530867 12.4090626,6.92703287 L12.4090626,11.6487844 L11.3121102,11.6487844 L11.3121102,6.92703287 C11.3121102,5.21151709 10.3625048,4.37827091 9.05271768,4.37827091 C7.74291822,4.37827091 6.77694449,5.2441941 6.77694449,6.92703287 L6.77694449,11.6487844 L5.67999116,11.6487844 L5.67999116,6.92703287 C5.67999116,5.2441941 4.69764465,4.37827091 3.3878496,4.37827091 C2.07805455,4.37827091 1.1284536,5.21151709 1.1284536,6.92703287 L1.1284536,11.6487844 L0.0315000264,11.6487844 L0.0315000264,6.92703287 C0.0315000264,4.52530867 1.43952936,3.36529239 3.30598747,3.36529239 C4.61578252,3.36529239 5.67999116,3.98614679 6.20390954,5.14616307 L6.23665422,5.14616307 C6.74419981,3.98614679 7.80840846,3.36529239 9.13457717,3.36529239 Z M57.135082,4.39034452 C55.2074605,4.39034452 53.9005972,5.76406106 53.9005972,7.62838563 C53.9005972,9.49270932 55.2074605,10.8664223 57.135082,10.8664223 C59.0627036,10.8664223 60.3695668,9.49270932 60.3695668,7.62838563 C60.3695668,5.76406106 59.0627036,4.39034452 57.135082,4.39034452 Z M47.1358766,4.37907113 C45.2046178,4.37907113 43.8952975,5.75257311 43.8952975,7.616611 C43.8952975,9.48064802 45.2046178,10.85415 47.1358766,10.85415 C49.0671266,10.85415 50.3764469,9.48064802 50.3764469,7.616611 C50.3764469,5.75257311 49.0671266,4.37907113 47.1358766,4.37907113 Z M27.5518272,4.37907113 C25.6242056,4.37907113 24.3173424,5.75257311 24.3173424,7.616611 C24.3173424,9.48064802 25.6242056,10.85415 27.5518272,10.85415 C29.4794487,10.85415 30.786312,9.48064802 30.786312,7.616611 C30.786312,5.75257311 29.4794487,4.37907113 27.5518272,4.37907113 Z M17.8955686,4.37907113 C15.967947,4.37907113 14.6610926,5.75257311 14.6610926,7.616611 C14.6610926,9.48064802 15.967947,10.85415 17.8955686,10.85415 C19.8231901,10.85415 21.1300534,9.48064802 21.1300534,7.616611 C21.1300534,5.75257311 19.8231901,4.37907113 17.8955686,4.37907113 Z M37.2162673,4.3717021 C35.2850174,4.3717021 33.9756882,5.74655653 33.9756882,7.61242789 C33.9756882,9.47829925 35.2850174,10.8531519 37.2162673,10.8531519 C39.1475173,10.8531519 40.4568377,9.47829925 40.4568377,7.61242789 C40.4568377,5.74655653 39.1475173,4.3717021 37.2162673,4.3717021 Z M66.7638369,4.37907113 C65.0421102,4.37907113 63.8287051,5.42554447 63.5663496,6.96256253 L63.5663496,6.99526504 L69.9449435,6.99526504 L69.9449435,6.96256253 C69.6825792,5.42554447 68.469174,4.37907113 66.7638369,4.37907113 Z" id="path-24"></path>
    </defs>
    <g id="Page-1" stroke="none" stroke-width="1" fill="none" fill-rule="evenodd">
        <g id="Desktop/Getting-started/FAQ:hover" transform="translate(-132.000000, -20.000000)">
            <g id="Logo/Full/Horizontal/Color-white" transform="translate(132.000000, 20.000000)">
                <g id="Logo/Mark/Blue" transform="translate(-0.007988, -0.094852)">
                    <g id="Slider-5" transform="translate(32.499556, 14.450184)">
                        <mask id="mask-2" fill="white">
                            <use xlink:href="#path-1"></use>
                        </mask>
                        <g id="Clip-22"></g>
                        <polygon id="Fill-21" fill="#6B6775" mask="url(#mask-2)" points="-0.761549648 -0.783975105 7.90952912 -0.783975105 7.90952912 7.86403817 -0.761549648 7.86403817"></polygon>
                    </g>
                    <g id="Slider-4" transform="translate(24.282222, 0.057817)">
                        <mask id="mask-4" fill="white">
                            <use xlink:href="#path-3"></use>
                        </mask>
                        <g id="Clip-10"></g>
                        <polygon id="Fill-9" fill="#005A8A" mask="url(#mask-4)" points="-0.658553583 -0.778120028 8.01250875 -0.778120028 8.01250875 26.9555124 -0.658553583 26.9555124"></polygon>
                    </g>
                    <g id="Slider-3" transform="translate(16.229235, 14.286634)">
                        <mask id="mask-6" fill="white">
                            <use xlink:href="#path-5"></use>
                        </mask>
                        <g id="Clip-16"></g>
                        <polygon id="Fill-15" fill="#FFB700" mask="url(#mask-6)" points="-0.719904199 -0.692714417 7.95115814 -0.692714417 7.95115814 17.4981101 -0.719904199 17.4981101"></polygon>
                    </g>
                    <g id="Slider-2" transform="translate(8.176247, 9.543695)">
                        <mask id="mask-8" fill="white">
                            <use xlink:href="#path-7"></use>
                        </mask>
                        <g id="Clip-13"></g>
                        <polygon id="Fill-12" fill="#FF4500" mask="url(#mask-8)" points="-0.781254815 -0.721188406 7.88980752 -0.721188406 7.88980752 17.4696345 -0.781254815 17.4696345"></polygon>
                    </g>
                    <g id="Slider-1" transform="translate(-0.041087, 14.450184)">
                        <mask id="mask-10" fill="white">
                            <use xlink:href="#path-9"></use>
                        </mask>
                        <g id="Clip-19"></g>
                        <polygon id="Fill-18" fill="#B60000" mask="url(#mask-10)" points="-0.678271898 -0.783975105 7.99278715 -0.783975105 7.99278715 7.86403817 -0.678271898 7.86403817"></polygon>
                    </g>
                </g>
                <g id="Group" transform="translate(47.755529, 11.297414)">
                    <g id="Logotype" transform="translate(0.056325, 0.000000)" filter="url(#filter-11)">
                        <g>
                            <g id="Group-3">
                                <mask id="mask-13" fill="white">
                                    <use xlink:href="#path-12"></use>
                                </mask>
                                <g id="Clip-2"></g>
                                <polygon id="Fill-1" fill="#000000" mask="url(#mask-13)" points="-0.408841539 -0.405305728 85.5510443 -0.405305728 85.5510443 14.8057991 -0.408841539 14.8057991"></polygon>
                            </g>
                            <g id="Group-18">
                                <g id="Group-6">
                                    <mask id="mask-15" fill="white">
                                        <use xlink:href="#path-14"></use>
                                    </mask>
                                    <g id="Clip-5"></g>
                                    <polygon id="Fill-4" fill="url(#linearGradient-16)" mask="url(#mask-15)" points="0.0315000264 14.3661193 85.0943288 14.3661193 85.0943288 0.0343659528 0.0315000264 0.0343659528"></polygon>
                                </g>
                                <g id="Group-9">
                                    <mask id="mask-18" fill="white">
                                        <use xlink:href="#path-17"></use>
                                    </mask>
                                    <g id="Clip-8"></g>
                                    <polygon id="Fill-7" fill="url(#linearGradient-19)" mask="url(#mask-18)" points="0.0315000264 14.3661193 85.0943288 14.3661193 85.0943288 0.0343659528 0.0315000264 0.0343659528"></polygon>
                                </g>
                                <g id="Group-12">
                                    <mask id="mask-21" fill="white">
                                        <use xlink:href="#path-20"></use>
                                    </mask>
                                    <g id="Clip-11"></g>
                                    <polygon id="Fill-10" fill="url(#linearGradient-16)" mask="url(#mask-21)" points="0.0315000264 14.3661193 85.0943288 14.3661193 85.0943288 0.0343659528 0.0315000264 0.0343659528"></polygon>
                                </g>
                                <g id="Group-15">
                                    <mask id="mask-23" fill="white">
                                        <use xlink:href="#path-22"></use>
                                    </mask>
                                    <g id="Clip-14"></g>
                                    <polygon id="Fill-13" fill="url(#linearGradient-19)" mask="url(#mask-23)" points="0.0315000264 14.3661193 85.0943288 14.3661193 85.0943288 0.0343659528 0.0315000264 0.0343659528"></polygon>
                                </g>
                                <mask id="mask-25" fill="white">
                                    <use xlink:href="#path-24"></use>
                                </mask>
                                <g id="Clip-17"></g>
                                <polygon id="Fill-16" fill="#061B25" mask="url(#mask-25)" points="-0.408841539 -0.405305728 85.5346724 -0.405305728 85.5346724 14.8057991 -0.408841539 14.8057991"></polygon>
                            </g>
                        </g>
                    </g>
                </g>
            </g>
        </g>
    </g>
</svg>